:SAMPLES-PER-SECOND 30
:FULLY-SPECIFIED
:DEGREES
145
root  -7.41343 39.8769 30.6262 102.223 89.0456 105.542
RightUpLeg  -20.3941 -8.10745 -4.79048
RightLeg  20.8038 -2.74872 -1.2737
RightFoot  4.01532 -0.578564 4.4851
RightToes  -5.8209e-011 0 -3.6325e-017
Spine  10.2802 -1.83762 -1.3574
Spine1  6.18265 -2.4771 1.17254
HEad  -6.43121 -23.9882 1.66315
LeftShoulder1  7.3117 -10.7282 -44.7468
LeftArm  -10.0686 12.5879 -29.131
LeftForeArm  30.1202 -36.9523 -6.59999
LeftHand  -0.244104 0.0205437 5.32207
RightShoulder  5.65976 8.86733 39.631
RightArm  0.789457 -18.5886 29.4984
RightForeArm  11.613 13.7864 6.59626
RightHand  -0.246709 -2.30976 -8.99465
LeftUpLeg  7.20163 4.43005 -5.59882
LeftLeg  10.554 15.211 -3.18456
LeftFoot  -15.8015 0.305703 5.37949
LeftToes  1.76439e-010 -1.07097e-011 2.32476e-011
146
root  -5.99669 39.7166 30.7475 116.728 88.6747 119.952
RightUpLeg  -19.2022 -10.68 -4.04721
RightLeg  7.56325 -2.17341 1.86268
RightFoot  4.57496 -0.789647 5.87079
RightToes  -5.8209e-011 0 -3.6325e-017
Spine  9.90939 -1.79763 -1.68865
Spine1  6.31162 -2.58447 1.9998
HEad  -8.19124 -23.5497 -1.13567
LeftShoulder1  7.29756 -10.7796 -44.4888
LeftArm  -9.98896 11.4802 -28.9144
LeftForeArm  31.0997 -39.1084 -7.14502
LeftHand  -0.244104 0.0205437 5.32207
RightShoulder  5.71543 8.9534 39.7551
RightArm  -1.4561 -18.2395 28.7282
RightForeArm  13.285 11.887 6.80404
RightHand  -0.25044 -2.26914 -9.02278
LeftUpLeg  10.0354 4.76215 -5.1955
LeftLeg  9.5608 14.2022 -3.70162
LeftFoot  -17.0368 0.338043 4.75994
LeftToes  1.76439e-010 -1.07097e-011 2.32476e-011
147
root  -4.49537 39.4279 30.8943 128.263 88.1097 131.652
RightUpLeg  -17.4083 -7.10644 -5.66333
RightLeg  -2.72653 -7.3047 5.50414
RightFoot  4.0002 -0.991931 7.56396
RightToes  -5.8209e-011 0 -3.6325e-017
Spine  9.76732 -1.82167 -2.081
Spine1  6.19668 -2.73233 2.66326
HEad  -10.0177 -27.2691 -13.9025
LeftShoulder1  7.29705 -10.8273 -44.3312
LeftArm  -9.89067 10.597 -28.6995
LeftForeArm  31.6831 -40.1582 -7.41764
LeftHand  -0.244104 0.0205437 5.32207
RightShoulder  5.78637 9.02981 40.027
RightArm  -4.05387 -17.5481 28.1201
RightForeArm  15.2493 9.42399 6.77033
RightHand  -0.269909 -2.04754 -9.13324
LeftUpLeg  12.7476 5.31638 -4.5882
LeftLeg  9.83845 12.4741 -3.94025
LeftFoot  -19.0371 0.33613 3.32155
LeftToes  1.76439e-010 -1.07097e-011 2.32476e-011
148
root  -2.95386 39.1099 31.0593 138.085 87.5636 141.677
RightUpLeg  -17.5772 -7.14749 -5.00568
RightLeg  -4.58066 -8.21126 6.13824
RightFoot  2.74974 -0.889808 7.32941
RightToes  -5.8209e-011 0 -3.6325e-017
Spine  9.79351 -1.85154 -2.18968
Spine1  6.01639 -2.88791 3.2985
HEad  -5.67146 -36.9624 -33.8543
LeftShoulder1  7.31615 -10.8802 -44.2819
LeftArm  -9.92924 9.99326 -28.5498
LeftForeArm  31.9756 -40.2285 -7.42126
LeftHand  -0.244104 0.0205437 5.32207
RightShoulder  5.82851 9.07574 40.1846
RightArm  -6.14377 -16.7556 27.9754
RightForeArm  16.2796 7.31019 6.35826
RightHand  -0.295894 -1.79602 -9.37323
LeftUpLeg  15.0043 6.58683 -3.59086
LeftLeg  11.2714 9.98018 -3.57241
LeftFoot  -20.7033 0.269701 1.75357
LeftToes  1.76439e-010 -1.07097e-011 2.32476e-011
149
root  -1.40048 38.9142 31.2073 152.229 87.245 155.83
RightUpLeg  -18.5558 -6.67056 -3.79262
RightLeg  -0.731875 -9.97342 5.38868
RightFoot  4.06413 -0.509909 4.04146
RightToes  -5.8209e-011 0 -3.6325e-017
Spine  9.80248 -1.93227 -1.19863
Spine1  6.0984 -3.07209 3.70677
HEad  -2.72973 -38.9718 -41.5579
LeftShoulder1  7.3493 -10.9102 -44.3952
LeftArm  -10.016 9.93525 -28.3262
LeftForeArm  31.7462 -39.6537 -7.26557
LeftHand  -0.244104 0.0205437 5.32207
RightShoulder  5.84159 9.09207 40.226
RightArm  -7.5631 -16.1603 28.1874
RightForeArm  16.0798 6.24417 5.92509
RightHand  -0.306504 -1.73358 -9.56057
LeftUpLeg  16.8989 9.09037 -1.85986
LeftLeg  12.9121 6.59445 -2.43945
LeftFoot  -20.8528 0.151848 0.327253
LeftToes  1.76439e-010 -1.07097e-011 2.32476e-011
